Coordinates
version=1
nRows=64
nColumns=11
inDegrees=yes

Units are S.I. units (second, meters, Newtons, ...)
If the header above contains a line with 'inDegrees', this indicates whether rotational values are in degrees (yes) or radians (no).

endheader
time	pelvis_tilt	pelvis_tx	pelvis_ty	hip_flexion_r	knee_angle_r	ankle_angle_r	hip_flexion_l	knee_angle_l	ankle_angle_l	lumbar_extension
     42.50464024	      0.52184650	      1.99912398	      0.81134094	     -9.15204552	    -15.84952383	      8.47822174	     14.13277399	     -1.05998974	    -15.83578163	     -1.93793896
     42.53797722	      0.38655122	      2.01610876	      0.80637717	    -10.35473214	    -15.95858568	      9.81848765	     13.33739283	      3.75411875	    -14.75042166	     -1.54436766
     42.57131419	      0.32822333	      2.03343030	      0.80152035	    -11.52058211	    -16.33991500	     10.97594170	     12.98708587	      6.91033658	    -12.86070729	     -1.19450849
     42.60465116	      0.30405760	      2.05081410	      0.79677941	    -12.54613981	    -17.09026738	     12.02067871	     13.14980124	      8.57810815	    -10.79682836	     -0.86905133
     42.63798814	      0.41870556	      2.06870829	      0.79230130	    -13.58587500	    -18.20193517	     12.96137891	     13.61881154	      8.59569400	     -8.53919059	     -0.69528828
     42.67132511	      0.58075959	      2.08770352	      0.78787519	    -14.57549372	    -19.66180894	     13.67668180	     14.08920904	      7.26826496	     -6.05223669	     -0.56635358
     42.70466208	      0.51192800	      2.10785473	      0.78291947	    -15.20289666	    -21.52466102	     14.18913763	     14.63092722	      5.06501412	     -4.59908267	     -0.14971937
     42.73799905	      0.47359786	      2.12938149	      0.77768537	    -15.76999398	    -23.73125621	     14.35992848	     14.86618716	      2.67319082	     -4.53955685	      0.29228242
     42.77133603	      0.64103298	      2.15154831	      0.77929491	    -16.14817944	    -26.28749154	     12.17400492	     14.43200385	      0.93181986	     -3.18790256	      0.63205445
     42.80467300	      0.93308322	      2.17455864	      0.77532628	    -16.58549118	    -29.35940421	     11.19907097	     13.72357603	     -1.04546383	     -5.28130913	      1.00776500
     42.83800997	      1.49771860	      2.19766113	      0.77214758	    -16.95464335	    -32.93347545	      9.32312228	     13.30234133	     -4.65797058	     -7.03160941	      1.09860011
     42.87134694	      1.76303908	      2.21991106	      0.77335296	    -16.38191280	    -36.93336974	      5.56422230	     13.62679806	     -8.45281037	     -8.98934431	      1.30837694
     42.90468392	      1.54399599	      2.23882240	      0.76889306	    -15.08504721	    -41.16979175	      3.05838718	     14.99072573	    -13.46624400	    -11.37327085	      1.81246822
     42.93802089	      2.04589542	      2.26177216	      0.76561467	    -14.76882867	    -45.45316957	      0.93570716	     15.53452947	    -18.74605987	    -11.72621367	      1.40983064
     42.97135786	      2.10766745	      2.28416595	      0.76822810	    -13.60274774	    -50.21716088	     -1.16908231	     15.07036022	    -21.96400819	     -8.62533966	      1.38736498
     43.00469484	      1.83750548	      2.30439977	      0.77125704	    -11.85464491	    -55.08797868	     -3.60421586	     13.54807549	    -21.75282203	     -6.17249958	      1.72040806
     43.03803181	      2.08447302	      2.32244774	      0.77649968	    -10.52877604	    -59.39571978	     -6.33135457	     11.29949374	    -20.75277388	     -5.05305503	      1.48476680
     43.07136878	      2.66406717	      2.33929411	      0.78325191	     -9.54327805	    -63.09146412	     -7.11245316	      9.35105913	    -20.69805888	     -4.78419113	      0.79328166
     43.10470575	      3.31188520	      2.35462765	      0.79001249	     -8.26184710	    -66.19960960	     -7.00528876	      7.87135689	    -21.50021164	     -4.79124425	     -0.01477941
     43.13804273	      4.02048087	      2.36878714	      0.79680897	     -6.44595868	    -68.58536764	     -7.43192468	      6.03304279	    -21.47797853	     -5.17541985	     -0.94442098
     43.17137970	      4.52652910	      2.38285984	      0.80276696	     -4.05547664	    -70.06134483	     -8.38256949	      3.87747342	    -20.36873948	     -5.58033090	     -1.68143008
     43.20471667	      4.87990391	      2.39760460	      0.80785818	     -1.51109499	    -70.53714600	     -9.04979307	      1.67015818	    -18.92820729	     -5.87515519	     -2.29855334
     43.23805364	      4.96068746	      2.41247927	      0.81176173	      1.14296405	    -69.95794983	     -8.95315113	     -0.21679527	    -17.54402023	     -6.07498649	     -2.63640926
     43.27139062	      4.98270030	      2.42707221	      0.81477921	      3.65423432	    -68.26777156	     -8.25177689	     -1.88213994	    -16.41916364	     -6.16843844	     -2.93351027
     43.30472759	      4.98030322	      2.44151264	      0.81698417	      6.07267747	    -65.63391629	     -7.44410705	     -3.42111980	    -15.48982902	     -6.10905238	     -3.18598633
     43.33806456	      4.94764255	      2.45620322	      0.81841017	      8.37355542	    -62.24447702	     -6.45631865	     -4.94199041	    -14.59232497	     -5.90329822	     -3.39955039
     43.37140154	      4.90584616	      2.47110027	      0.81916352	     10.42604754	    -58.21717648	     -5.34806171	     -6.47437271	    -13.66789965	     -5.67112370	     -3.60381228
     43.40473851	      4.90105854	      2.48544072	      0.81937747	     12.01833799	    -53.22934127	     -4.68463852	     -8.03478243	    -12.68885764	     -5.38615034	     -3.89259031
     43.43807548	      4.65547137	      2.49937043	      0.81886424	     13.37849627	    -47.47687844	     -4.60579027	     -9.25143985	    -11.84111093	     -5.09635450	     -3.91866752
     43.47141245	      4.66117747	      2.51277404	      0.81820744	     13.95914125	    -41.08542525	     -5.16413580	    -10.59101118	    -11.21256389	     -4.69824017	     -4.27080631
     43.50474943	      4.72789882	      2.52628243	      0.81715165	     14.09759934	    -34.68293851	     -5.71025453	    -11.94359811	    -10.71119139	     -4.29927101	     -4.71797083
     43.53808640	      4.89220106	      2.54043793	      0.81448353	     13.92762055	    -28.71516868	     -5.19144166	    -13.41523992	    -10.31539267	     -3.86122608	     -5.29443687
     43.57142337	      5.17446192	      2.55519447	      0.81126523	     13.57613666	    -23.32191945	     -3.63594323	    -15.01965110	    -10.12644497	     -3.18012796	     -5.95269075
     43.60476035	      5.56865039	      2.57025530	      0.80893757	     13.04461261	    -18.53186087	     -1.28075728	    -16.72426496	    -10.24385501	     -1.50145869	     -6.62959643
     43.63809732	      5.80827964	      2.58589274	      0.80599455	     12.69334770	    -14.47494221	      1.76169492	    -18.10219961	    -10.51216193	     -0.38617667	     -7.06193217
     43.67143429	      5.73546605	      2.60101458	      0.80264586	     12.73711633	    -11.03325195	      4.80312722	    -19.13257360	    -10.81437449	      0.61563378	     -7.12118605
     43.70477126	      5.54746404	      2.61647809	      0.79918115	     13.18745336	     -8.50759516	      7.47745524	    -20.00574131	    -11.15088620	      1.37732200	     -7.02772352
     43.73810824	      5.77391417	      2.63273251	      0.79593867	     13.41281984	     -7.09265975	      9.72794271	    -21.30691414	    -11.67174403	      2.00684556	     -7.26910874
     43.77144521	      5.93119404	      2.65039321	      0.79218959	     13.70494361	     -6.92327290	     11.79730167	    -22.56261821	    -12.32667147	      2.55379062	     -7.23183715
     43.80478218	      6.58317908	      2.66887235	      0.78856071	     13.19428245	     -7.67859537	     13.58901314	    -24.39138060	    -13.03161277	      3.06315107	     -7.77049127
     43.83811915	      6.55974493	      2.68864922	      0.78361118	     13.40985200	     -9.58367699	     15.17167325	    -25.48133641	    -13.91418651	      3.41252731	     -7.52553548
     43.87145613	      6.60600071	      2.70988272	      0.77823065	     13.65127617	    -12.28890270	     15.84805050	    -26.54880340	    -15.16753789	      3.58690656	     -7.26775220
     43.90479310	      6.74187506	      2.73216111	      0.77267322	     13.89767526	    -14.47251931	     14.17512663	    -27.41404779	    -17.06859718	      3.38185493	     -6.93025246
     43.93813007	      6.97564362	      2.75507933	      0.76740031	     13.64787674	    -15.55464972	     10.57629422	    -27.93704554	    -19.75753808	      2.61167273	     -6.45786151
     43.97146705	      7.26047673	      2.77899591	      0.76248170	     12.91717164	    -16.67292001	      6.58190119	    -28.03117797	    -23.24773561	      0.90348398	     -6.02511381
     44.00480402	      7.61182587	      2.80342320	      0.75812996	     12.25363277	    -18.30602733	      2.04105880	    -27.57495758	    -27.59370966	     -2.01548090	     -5.78501232
     44.03814099	      7.49869773	      2.82837789	      0.75285334	     12.25702710	    -19.93528731	     -2.81994352	    -26.03180106	    -32.69535237	     -5.92844007	     -5.24892550
     44.07147796	      7.25781572	      2.85340453	      0.74748018	     12.21341618	    -21.87271510	     -5.59910001	    -23.93561497	    -38.58481214	     -9.95973660	     -4.78651325
     44.10481494	      8.49962690	      2.85260871	      0.74580401	     10.09137861	    -23.81087215	     -6.29859701	    -22.94713661	    -44.86757111	    -12.03817543	     -5.87935144
     44.13815191	      7.42993734	      2.86826755	      0.75996988	     10.64228410	    -26.05607233	     -0.42641298	    -19.64132274	    -50.54295964	    -17.78996542	     -4.74291195
     44.17148888	      7.82331021	      2.88583348	      0.77087501	      9.29449270	    -26.81398332	     -0.08186572	    -17.72417956	    -56.06951287	    -22.48943379	     -5.15798674
     44.20482585	      7.81350532	      2.90332361	      0.78261433	      8.40469408	    -27.71218723	     -0.43612142	    -14.86072927	    -61.39885939	    -24.52422292	     -5.29296678
     44.23816283	      7.51693400	      2.92126882	      0.79273108	      7.20709690	    -27.23886525	     -1.30300130	    -11.49931503	    -66.09858856	    -23.00430751	     -5.31471560
     44.27149980	      7.13492529	      2.93966474	      0.80133497	      5.95696683	    -26.59947401	     -2.08687270	     -8.03259332	    -69.18784965	    -20.36968893	     -5.30232763
     44.30483677	      6.61578929	      2.95758660	      0.80901784	      4.77367926	    -25.65879859	     -2.89550946	     -4.36504042	    -70.83395838	    -17.38046246	     -5.18148577
     44.33817375	      5.75850788	      2.97417095	      0.81492913	      4.01203056	    -24.65491060	     -3.57372855	     -0.48079051	    -71.07678414	    -14.17896631	     -4.73135867
     44.37151072	      4.76864821	      2.98944561	      0.81924003	      3.54930008	    -23.76252730	     -4.08238682	      3.10068988	    -69.74422662	    -11.03604155	     -4.11011480
     44.40484769	      3.88489190	      3.00377803	      0.82054199	      3.03843796	    -22.88620229	     -4.41266405	      6.11763095	    -67.02291370	     -8.55085647	     -3.56092526
     44.43818466	      3.42397860	      3.01824204	      0.82258411	      2.02782108	    -21.88312286	     -4.52810384	      8.39255054	    -63.50358486	     -7.07833098	     -3.41133811
     44.47152164	      3.17743149	      3.03306600	      0.82671065	      0.82141879	    -21.09956472	     -3.29169280	     10.30895843	    -59.22024778	     -7.09061314	     -3.43734279
     44.50485861	      2.81890675	      3.04682179	      0.82876902	     -0.28863071	    -20.28643686	     -2.91566918	     12.19341150	    -53.99335489	     -8.18612742	     -3.29048205
     44.53819558	      2.49398063	      3.06070547	      0.82850823	     -1.53683901	    -19.21973754	     -2.58877212	     13.76582765	    -48.17645192	     -9.77133929	     -3.10289903
     44.57153255	      2.47702540	      3.07469586	      0.82787889	     -3.14426724	    -18.02194482	     -2.09227292	     14.40293811	    -41.60656109	    -11.37127979	     -3.29161706
     44.60486953	      2.35992704	      3.08935827	      0.82639938	     -4.65821895	    -16.88184636	     -0.97203082	     14.48572476	    -34.09805011	    -13.19669895	     -3.36737649
